<?xml version="1.0" encoding="UTF-8"?>
<!-- Do not edit this file with editors other than draw.io -->
<!DOCTYPE svg PUBLIC "-//W3C//DTD SVG 1.1//EN" "http://www.w3.org/Graphics/SVG/1.1/DTD/svg11.dtd">
<svg xmlns="http://www.w3.org/2000/svg" style="background: #FFFFFF; background-color: light-dark(#FFFFFF, #121212); color-scheme: light;" xmlns:xlink="http://www.w3.org/1999/xlink" version="1.1" width="1362px" height="692px" viewBox="0 0 1362 692" content="&lt;mxfile host=&quot;Electron&quot;&gt;&#10;  &lt;diagram id=&quot;flamestar-capital&quot; name=&quot;flamestar-capital&quot;&gt;&#10;    &lt;mxGraphModel grid=&quot;0&quot; gridSize=&quot;10&quot; guides=&quot;1&quot; tooltips=&quot;1&quot; connect=&quot;1&quot; arrows=&quot;1&quot; fold=&quot;0&quot; page=&quot;0&quot; pageScale=&quot;1&quot; pageWidth=&quot;1400&quot; pageHeight=&quot;700&quot; background=&quot;#FFFFFF&quot; math=&quot;0&quot; shadow=&quot;0&quot;&gt;&#10;      &lt;root&gt;&#10;        &lt;mxCell id=&quot;0&quot; /&gt;&#10;        &lt;mxCell id=&quot;1&quot; parent=&quot;0&quot; /&gt;&#10;        &lt;mxCell id=&quot;t1&quot; parent=&quot;1&quot; style=&quot;text;html=0;strokeColor=none;fillColor=none;align=left;verticalAlign=middle;fontSize=20;fontStyle=1;fontColor=#232F3E;fontFamily=Helvetica;&quot; value=&quot;Flamestar Capital Website — Architecture&quot; vertex=&quot;1&quot;&gt;&#10;          &lt;mxGeometry height=&quot;30&quot; width=&quot;800&quot; x=&quot;20&quot; y=&quot;10&quot; as=&quot;geometry&quot; /&gt;&#10;        &lt;/mxCell&gt;&#10;        &lt;mxCell id=&quot;t2&quot; parent=&quot;1&quot; style=&quot;text;html=0;strokeColor=none;fillColor=none;align=left;verticalAlign=middle;fontSize=12;fontStyle=0;fontColor=#545B64;fontFamily=Helvetica;&quot; value=&quot;Static React SPA built from Figma · no backend · Bun + Vite&quot; vertex=&quot;1&quot;&gt;&#10;          &lt;mxGeometry height=&quot;20&quot; width=&quot;800&quot; x=&quot;20&quot; y=&quot;38&quot; as=&quot;geometry&quot; /&gt;&#10;        &lt;/mxCell&gt;&#10;        &lt;mxCell id=&quot;g3&quot; parent=&quot;1&quot; style=&quot;rounded=1;arcSize=2;strokeColor=#879196;fillColor=none;fontColor=#232F3E;dashed=1;spacingLeft=10;fontSize=12;fontStyle=1;verticalAlign=top;align=left;container=1;collapsible=0;recursiveResize=0;html=0;fontFamily=Helvetica;&quot; value=&quot;Build time — asset pipeline &amp;amp; bundling (Bun scripts)&quot; vertex=&quot;1&quot;&gt;&#10;          &lt;mxGeometry height=&quot;560&quot; width=&quot;660&quot; x=&quot;20&quot; y=&quot;80&quot; as=&quot;geometry&quot; /&gt;&#10;        &lt;/mxCell&gt;&#10;        &lt;mxCell id=&quot;b4&quot; parent=&quot;g3&quot; style=&quot;rounded=1;arcSize=8;html=0;fillColor=#F3E8FF;strokeColor=#A259FF;fontSize=11;fontColor=#232F3E;fontStyle=0;fontFamily=Helvetica;&quot; value=&quot;Figma design&amp;#xa;(via Figma MCP in Copilot Chat)&quot; vertex=&quot;1&quot;&gt;&#10;          &lt;mxGeometry height=&quot;50&quot; width=&quot;190&quot; x=&quot;30&quot; y=&quot;50&quot; as=&quot;geometry&quot; /&gt;&#10;        &lt;/mxCell&gt;&#10;        &lt;mxCell id=&quot;b5&quot; parent=&quot;g3&quot; style=&quot;rounded=1;arcSize=8;html=0;fillColor=#F8F9F9;strokeColor=#879196;fontSize=11;fontColor=#232F3E;fontStyle=0;fontFamily=Helvetica;&quot; value=&quot;Font sources&amp;#xa;unpkg (Geist) · rsms.me (Inter)&quot; vertex=&quot;1&quot;&gt;&#10;          &lt;mxGeometry height=&quot;50&quot; width=&quot;190&quot; x=&quot;30&quot; y=&quot;150&quot; as=&quot;geometry&quot; /&gt;&#10;        &lt;/mxCell&gt;&#10;        &lt;mxCell id=&quot;b6&quot; parent=&quot;g3&quot; style=&quot;rounded=1;arcSize=8;html=0;fillColor=#FFFFFF;strokeColor=#879196;fontSize=11;fontColor=#232F3E;fontStyle=0;fontFamily=Helvetica;&quot; value=&quot;download-assets.mjs&amp;#xa;fetch Figma MCP asset URLs&amp;#xa;cwebp / rsvg-convert → WebP&quot; vertex=&quot;1&quot;&gt;&#10;          &lt;mxGeometry height=&quot;64&quot; width=&quot;220&quot; x=&quot;300&quot; y=&quot;80&quot; as=&quot;geometry&quot; /&gt;&#10;        &lt;/mxCell&gt;&#10;        &lt;mxCell id=&quot;b7&quot; parent=&quot;g3&quot; style=&quot;rounded=1;arcSize=8;html=0;fillColor=#F8F9F9;strokeColor=#879196;fontSize=11;fontColor=#232F3E;fontStyle=0;fontFamily=Helvetica;&quot; value=&quot;audit-assets.mjs&amp;#xa;live vs. on-disk report&quot; vertex=&quot;1&quot;&gt;&#10;          &lt;mxGeometry height=&quot;44&quot; width=&quot;170&quot; x=&quot;470&quot; y=&quot;282&quot; as=&quot;geometry&quot; /&gt;&#10;        &lt;/mxCell&gt;&#10;        &lt;mxCell id=&quot;n8&quot; parent=&quot;g3&quot; style=&quot;shape=mxgraph.aws4.folder;fillColor=#7D8998;strokeColor=none;verticalLabelPosition=middle;labelPosition=left;verticalAlign=middle;align=right;spacingRight=2;html=0;fontSize=11;fontColor=#232F3E;aspect=fixed;fontFamily=Helvetica;&quot; value=&quot;public/assets&amp;#xa;icons · WebP images ·&amp;#xa;variable fonts ·&amp;#xa;asset-manifest.json&quot; vertex=&quot;1&quot;&gt;&#10;          &lt;mxGeometry height=&quot;48&quot; width=&quot;48&quot; x=&quot;386&quot; y=&quot;280&quot; as=&quot;geometry&quot; /&gt;&#10;        &lt;/mxCell&gt;&#10;        &lt;mxCell id=&quot;b9&quot; parent=&quot;g3&quot; style=&quot;rounded=1;arcSize=8;html=0;fillColor=#FFFFFF;strokeColor=#879196;fontSize=11;fontColor=#232F3E;fontStyle=0;fontFamily=Helvetica;&quot; value=&quot;src/ — React 19 · TypeScript&amp;#xa;SCSS Modules + design tokens&quot; vertex=&quot;1&quot;&gt;&#10;          &lt;mxGeometry height=&quot;50&quot; width=&quot;210&quot; x=&quot;30&quot; y=&quot;413&quot; as=&quot;geometry&quot; /&gt;&#10;        &lt;/mxCell&gt;&#10;        &lt;mxCell id=&quot;b10&quot; parent=&quot;g3&quot; style=&quot;rounded=1;arcSize=8;html=0;fillColor=#FFF4E5;strokeColor=#ED7100;fontSize=11;fontColor=#232F3E;fontStyle=1;fontFamily=Helvetica;&quot; value=&quot;vite build&quot; vertex=&quot;1&quot;&gt;&#10;          &lt;mxGeometry height=&quot;36&quot; width=&quot;150&quot; x=&quot;335&quot; y=&quot;420&quot; as=&quot;geometry&quot; /&gt;&#10;        &lt;/mxCell&gt;&#10;        &lt;mxCell id=&quot;n11&quot; parent=&quot;g3&quot; style=&quot;shape=mxgraph.aws4.folder;fillColor=#7D8998;strokeColor=none;verticalLabelPosition=bottom;verticalAlign=top;align=center;html=0;fontSize=11;fontColor=#232F3E;aspect=fixed;fontFamily=Helvetica;&quot; value=&quot;dist/&amp;#xa;static bundle&quot; vertex=&quot;1&quot;&gt;&#10;          &lt;mxGeometry height=&quot;48&quot; width=&quot;48&quot; x=&quot;560&quot; y=&quot;414&quot; as=&quot;geometry&quot; /&gt;&#10;        &lt;/mxCell&gt;&#10;        &lt;mxCell id=&quot;e12&quot; edge=&quot;1&quot; parent=&quot;1&quot; source=&quot;b4&quot; style=&quot;edgeStyle=orthogonalEdgeStyle;rounded=1;orthogonalLoop=1;jettySize=auto;html=0;endArrow=block;endFill=1;jumpStyle=arc;jumpSize=8;strokeColor=#545B64;strokeWidth=1.5;fontSize=10;fontColor=#545B64;labelBackgroundColor=#FFFFFF;fontFamily=Helvetica;exitX=1;exitY=0.5;exitDx=0;exitDy=0;entryX=0;entryY=0.3;entryDx=0;entryDy=0;&quot; target=&quot;b6&quot; value=&quot;&quot;&gt;&#10;          &lt;mxGeometry relative=&quot;1&quot; as=&quot;geometry&quot; /&gt;&#10;        &lt;/mxCell&gt;&#10;        &lt;mxCell id=&quot;e13&quot; edge=&quot;1&quot; parent=&quot;1&quot; source=&quot;b5&quot; style=&quot;edgeStyle=orthogonalEdgeStyle;rounded=1;orthogonalLoop=1;jettySize=auto;html=0;endArrow=block;endFill=1;jumpStyle=arc;jumpSize=8;strokeColor=#545B64;strokeWidth=1.5;fontSize=10;fontColor=#545B64;labelBackgroundColor=#FFFFFF;fontFamily=Helvetica;exitX=1;exitY=0.5;exitDx=0;exitDy=0;entryX=0;entryY=0.75;entryDx=0;entryDy=0;&quot; target=&quot;b6&quot; value=&quot;&quot;&gt;&#10;          &lt;mxGeometry relative=&quot;1&quot; as=&quot;geometry&quot; /&gt;&#10;        &lt;/mxCell&gt;&#10;        &lt;mxCell id=&quot;e14&quot; edge=&quot;1&quot; parent=&quot;1&quot; source=&quot;b6&quot; style=&quot;edgeStyle=orthogonalEdgeStyle;rounded=1;orthogonalLoop=1;jettySize=auto;html=0;endArrow=block;endFill=1;jumpStyle=arc;jumpSize=8;strokeColor=#545B64;strokeWidth=1.5;fontSize=10;fontColor=#545B64;labelBackgroundColor=#FFFFFF;fontFamily=Helvetica;exitX=0.5;exitY=1;exitDx=0;exitDy=0;entryX=0.5;entryY=0;entryDx=0;entryDy=0;&quot; target=&quot;n8&quot; value=&quot;&quot;&gt;&#10;          &lt;mxGeometry relative=&quot;1&quot; as=&quot;geometry&quot;&gt;&#10;            &lt;Array as=&quot;points&quot;&gt;&#10;              &lt;mxPoint x=&quot;430&quot; y=&quot;340&quot; /&gt;&#10;            &lt;/Array&gt;&#10;          &lt;/mxGeometry&gt;&#10;        &lt;/mxCell&gt;&#10;        &lt;mxCell id=&quot;e15&quot; edge=&quot;1&quot; parent=&quot;1&quot; source=&quot;b7&quot; style=&quot;edgeStyle=orthogonalEdgeStyle;rounded=1;orthogonalLoop=1;jettySize=auto;html=0;endArrow=block;endFill=1;jumpStyle=arc;jumpSize=8;strokeColor=#545B64;strokeWidth=1.5;fontSize=10;fontColor=#545B64;labelBackgroundColor=#FFFFFF;fontFamily=Helvetica;dashed=1;dashPattern=6 4;exitX=0;exitY=0.5;exitDx=0;exitDy=0;entryX=1;entryY=0.5;entryDx=0;entryDy=0;&quot; target=&quot;n8&quot; value=&quot;checks&quot;&gt;&#10;          &lt;mxGeometry relative=&quot;1&quot; as=&quot;geometry&quot; /&gt;&#10;        &lt;/mxCell&gt;&#10;        &lt;mxCell id=&quot;e16&quot; edge=&quot;1&quot; parent=&quot;1&quot; source=&quot;b9&quot; style=&quot;edgeStyle=orthogonalEdgeStyle;rounded=1;orthogonalLoop=1;jettySize=auto;html=0;endArrow=block;endFill=1;jumpStyle=arc;jumpSize=8;strokeColor=#545B64;strokeWidth=1.5;fontSize=10;fontColor=#545B64;labelBackgroundColor=#FFFFFF;fontFamily=Helvetica;&quot; target=&quot;b10&quot; value=&quot;&quot;&gt;&#10;          &lt;mxGeometry relative=&quot;1&quot; as=&quot;geometry&quot; /&gt;&#10;        &lt;/mxCell&gt;&#10;        &lt;mxCell id=&quot;e17&quot; edge=&quot;1&quot; parent=&quot;1&quot; source=&quot;n8&quot; style=&quot;edgeStyle=orthogonalEdgeStyle;rounded=1;orthogonalLoop=1;jettySize=auto;html=0;endArrow=block;endFill=1;jumpStyle=arc;jumpSize=8;strokeColor=#545B64;strokeWidth=1.5;fontSize=10;fontColor=#545B64;labelBackgroundColor=#FFFFFF;fontFamily=Helvetica;exitX=0.5;exitY=1;exitDx=0;exitDy=0;entryX=0.5;entryY=0;entryDx=0;entryDy=0;&quot; target=&quot;b10&quot; value=&quot;&quot;&gt;&#10;          &lt;mxGeometry relative=&quot;1&quot; as=&quot;geometry&quot; /&gt;&#10;        &lt;/mxCell&gt;&#10;        &lt;mxCell id=&quot;e18&quot; edge=&quot;1&quot; parent=&quot;1&quot; source=&quot;b10&quot; style=&quot;edgeStyle=orthogonalEdgeStyle;rounded=1;orthogonalLoop=1;jettySize=auto;html=0;endArrow=block;endFill=1;jumpStyle=arc;jumpSize=8;strokeColor=#545B64;strokeWidth=1.5;fontSize=10;fontColor=#545B64;labelBackgroundColor=#FFFFFF;fontFamily=Helvetica;&quot; target=&quot;n11&quot; value=&quot;&quot;&gt;&#10;          &lt;mxGeometry relative=&quot;1&quot; as=&quot;geometry&quot; /&gt;&#10;        &lt;/mxCell&gt;&#10;        &lt;mxCell id=&quot;n19&quot; parent=&quot;1&quot; style=&quot;shape=mxgraph.aws4.globe;fillColor=#232F3E;strokeColor=none;verticalLabelPosition=top;verticalAlign=bottom;align=center;html=0;fontSize=11;fontColor=#232F3E;aspect=fixed;fontFamily=Helvetica;opacity=55;textOpacity=80;&quot; value=&quot;Static host&amp;#xa;(not yet chosen)&quot; vertex=&quot;1&quot;&gt;&#10;          &lt;mxGeometry height=&quot;48&quot; width=&quot;48&quot; x=&quot;780&quot; y=&quot;360&quot; as=&quot;geometry&quot; /&gt;&#10;        &lt;/mxCell&gt;&#10;        &lt;mxCell id=&quot;t20&quot; parent=&quot;1&quot; style=&quot;text;html=0;strokeColor=none;fillColor=none;align=center;verticalAlign=middle;fontSize=10;fontStyle=0;fontColor=#ED7100;fontFamily=Helvetica;&quot; value=&quot;serves HTML · JS · CSS&amp;#xa;+ self-hosted fonts&quot; vertex=&quot;1&quot;&gt;&#10;          &lt;mxGeometry height=&quot;32&quot; width=&quot;130&quot; x=&quot;740&quot; y=&quot;416&quot; as=&quot;geometry&quot; /&gt;&#10;        &lt;/mxCell&gt;&#10;        &lt;mxCell id=&quot;e21&quot; edge=&quot;1&quot; parent=&quot;1&quot; source=&quot;n11&quot; style=&quot;edgeStyle=orthogonalEdgeStyle;rounded=1;orthogonalLoop=1;jettySize=auto;html=0;endArrow=block;endFill=1;jumpStyle=arc;jumpSize=8;strokeColor=#ED7100;strokeWidth=1.5;fontSize=10;fontColor=#545B64;labelBackgroundColor=#FFFFFF;fontFamily=Helvetica;dashed=1;dashPattern=6 4;exitX=1;exitY=0.5;exitDx=0;exitDy=0;entryX=0;entryY=0.5;entryDx=0;entryDy=0;&quot; target=&quot;n19&quot; value=&quot;deploy&quot;&gt;&#10;          &lt;mxGeometry relative=&quot;1&quot; as=&quot;geometry&quot;&gt;&#10;            &lt;Array as=&quot;points&quot;&gt;&#10;              &lt;mxPoint x=&quot;720&quot; y=&quot;518&quot; /&gt;&#10;              &lt;mxPoint x=&quot;720&quot; y=&quot;384&quot; /&gt;&#10;            &lt;/Array&gt;&#10;          &lt;/mxGeometry&gt;&#10;        &lt;/mxCell&gt;&#10;        &lt;mxCell id=&quot;g22&quot; parent=&quot;1&quot; style=&quot;rounded=1;arcSize=2;strokeColor=#879196;fillColor=none;fontColor=#232F3E;dashed=1;spacingLeft=10;fontSize=12;fontStyle=1;verticalAlign=top;align=left;container=1;collapsible=0;recursiveResize=0;html=0;fontFamily=Helvetica;&quot; value=&quot;Runtime — visitor&amp;#39;s browser&quot; vertex=&quot;1&quot;&gt;&#10;          &lt;mxGeometry height=&quot;560&quot; width=&quot;480&quot; x=&quot;900&quot; y=&quot;80&quot; as=&quot;geometry&quot; /&gt;&#10;        &lt;/mxCell&gt;&#10;        &lt;mxCell id=&quot;n23&quot; parent=&quot;g22&quot; style=&quot;shape=mxgraph.aws4.users;fillColor=#232F3E;strokeColor=none;verticalLabelPosition=middle;labelPosition=right;verticalAlign=middle;align=left;spacingLeft=2;html=0;fontSize=11;fontColor=#232F3E;aspect=fixed;fontFamily=Helvetica;&quot; value=&quot;Prospective investors&quot; vertex=&quot;1&quot;&gt;&#10;          &lt;mxGeometry height=&quot;48&quot; width=&quot;48&quot; x=&quot;216&quot; y=&quot;60&quot; as=&quot;geometry&quot; /&gt;&#10;        &lt;/mxCell&gt;&#10;        &lt;mxCell id=&quot;b24&quot; parent=&quot;g22&quot; style=&quot;rounded=1;arcSize=8;html=0;fillColor=#E6F6F7;strokeColor=#00A4A6;fontSize=11;fontColor=#232F3E;fontStyle=1;fontFamily=Helvetica;&quot; value=&quot;React SPA — React Router 7&amp;#xa;lazy-loaded routes (React.lazy + Suspense)&quot; vertex=&quot;1&quot;&gt;&#10;          &lt;mxGeometry height=&quot;50&quot; width=&quot;380&quot; x=&quot;50&quot; y=&quot;160&quot; as=&quot;geometry&quot; /&gt;&#10;        &lt;/mxCell&gt;&#10;        &lt;mxCell id=&quot;b25&quot; parent=&quot;g22&quot; style=&quot;rounded=1;arcSize=8;html=0;fillColor=#FFFFFF;strokeColor=#879196;fontSize=10;fontColor=#232F3E;fontStyle=0;fontFamily=Helvetica;&quot; value=&quot;Landing · About · Services · Our Funds ·&amp;#xa;Track Record · Insights · Contact · Privacy&quot; vertex=&quot;1&quot;&gt;&#10;          &lt;mxGeometry height=&quot;44&quot; width=&quot;380&quot; x=&quot;50&quot; y=&quot;230&quot; as=&quot;geometry&quot; /&gt;&#10;        &lt;/mxCell&gt;&#10;        &lt;mxCell id=&quot;b26&quot; parent=&quot;g22&quot; style=&quot;rounded=1;arcSize=8;html=0;fillColor=#FFFFFF;strokeColor=#879196;fontSize=10;fontColor=#232F3E;fontStyle=0;fontFamily=Helvetica;&quot; value=&quot;Shared layout: SiteHeader · SiteFooter · PageShell · MobileMenu&amp;#xa;UI primitives: Button · Card · Input · AnimatedChartCard&quot; vertex=&quot;1&quot;&gt;&#10;          &lt;mxGeometry height=&quot;44&quot; width=&quot;380&quot; x=&quot;50&quot; y=&quot;290&quot; as=&quot;geometry&quot; /&gt;&#10;        &lt;/mxCell&gt;&#10;        &lt;mxCell id=&quot;b27&quot; parent=&quot;g22&quot; style=&quot;rounded=1;arcSize=8;html=0;fillColor=#F8F9F9;strokeColor=#879196;fontSize=10;fontColor=#232F3E;fontStyle=0;fontFamily=Helvetica;&quot; value=&quot;Accessibility: skip-link · ARIA live regions ·&amp;#xa;focus-visible rings · prefers-reduced-motion&quot; vertex=&quot;1&quot;&gt;&#10;          &lt;mxGeometry height=&quot;44&quot; width=&quot;380&quot; x=&quot;50&quot; y=&quot;350&quot; as=&quot;geometry&quot; /&gt;&#10;        &lt;/mxCell&gt;&#10;        &lt;mxCell id=&quot;b28&quot; parent=&quot;g22&quot; style=&quot;rounded=1;arcSize=8;html=0;fillColor=#FFFFFF;strokeColor=#ED7100;fontSize=10;fontColor=#ED7100;fontStyle=0;dashed=1;dashPattern=8 4;fontFamily=Helvetica;&quot; value=&quot;Contact form — client-side validation only&amp;#xa;(no submission endpoint yet)&quot; vertex=&quot;1&quot;&gt;&#10;          &lt;mxGeometry height=&quot;44&quot; width=&quot;380&quot; x=&quot;50&quot; y=&quot;420&quot; as=&quot;geometry&quot; /&gt;&#10;        &lt;/mxCell&gt;&#10;        &lt;mxCell id=&quot;b29&quot; parent=&quot;g22&quot; style=&quot;rounded=1;arcSize=8;html=0;fillColor=#F8F9F9;strokeColor=#879196;fontSize=10;fontColor=#232F3E;fontStyle=0;fontFamily=Helvetica;&quot; value=&quot;Google Maps embed · mailto: · WhatsApp (wa.me)&quot; vertex=&quot;1&quot;&gt;&#10;          &lt;mxGeometry height=&quot;34&quot; width=&quot;380&quot; x=&quot;50&quot; y=&quot;490&quot; as=&quot;geometry&quot; /&gt;&#10;        &lt;/mxCell&gt;&#10;        &lt;mxCell id=&quot;e30&quot; edge=&quot;1&quot; parent=&quot;1&quot; source=&quot;n23&quot; style=&quot;edgeStyle=orthogonalEdgeStyle;rounded=1;orthogonalLoop=1;jettySize=auto;html=0;endArrow=block;endFill=1;jumpStyle=arc;jumpSize=8;strokeColor=#545B64;strokeWidth=1.5;fontSize=10;fontColor=#545B64;labelBackgroundColor=#FFFFFF;fontFamily=Helvetica;exitX=0.5;exitY=1;exitDx=0;exitDy=0;entryX=0.5;entryY=0;entryDx=0;entryDy=0;&quot; target=&quot;b24&quot; value=&quot;&quot;&gt;&#10;          &lt;mxGeometry relative=&quot;1&quot; as=&quot;geometry&quot; /&gt;&#10;        &lt;/mxCell&gt;&#10;        &lt;mxCell id=&quot;e31&quot; edge=&quot;1&quot; parent=&quot;1&quot; source=&quot;n19&quot; style=&quot;edgeStyle=orthogonalEdgeStyle;rounded=1;orthogonalLoop=1;jettySize=auto;html=0;endArrow=block;endFill=1;jumpStyle=arc;jumpSize=8;strokeColor=#ED7100;strokeWidth=1.5;fontSize=10;fontColor=#545B64;labelBackgroundColor=#FFFFFF;fontFamily=Helvetica;dashed=1;dashPattern=6 4;exitX=1;exitY=0.5;exitDx=0;exitDy=0;entryX=0;entryY=0.5;entryDx=0;entryDy=0;&quot; target=&quot;b24&quot; value=&quot;&quot;&gt;&#10;          &lt;mxGeometry relative=&quot;1&quot; as=&quot;geometry&quot;&gt;&#10;            &lt;Array as=&quot;points&quot;&gt;&#10;              &lt;mxPoint x=&quot;880&quot; y=&quot;384&quot; /&gt;&#10;              &lt;mxPoint x=&quot;880&quot; y=&quot;265&quot; /&gt;&#10;            &lt;/Array&gt;&#10;          &lt;/mxGeometry&gt;&#10;        &lt;/mxCell&gt;&#10;        &lt;mxCell id=&quot;b32&quot; parent=&quot;1&quot; style=&quot;rounded=1;arcSize=8;html=0;fillColor=#FFFFFF;strokeColor=#D5DBDB;fontSize=11;fontColor=#232F3E;fontStyle=0;fontFamily=Helvetica;&quot; value=&quot;&quot; vertex=&quot;1&quot;&gt;&#10;          &lt;mxGeometry height=&quot;30&quot; width=&quot;330&quot; x=&quot;20&quot; y=&quot;670&quot; as=&quot;geometry&quot; /&gt;&#10;        &lt;/mxCell&gt;&#10;        &lt;mxCell id=&quot;l33&quot; edge=&quot;1&quot; parent=&quot;1&quot; style=&quot;endArrow=block;endFill=1;strokeColor=#545B64;strokeWidth=1.5;html=0;&quot; value=&quot;&quot;&gt;&#10;          &lt;mxGeometry relative=&quot;1&quot; as=&quot;geometry&quot;&gt;&#10;            &lt;mxPoint x=&quot;32&quot; y=&quot;685&quot; as=&quot;sourcePoint&quot; /&gt;&#10;            &lt;mxPoint x=&quot;72&quot; y=&quot;685&quot; as=&quot;targetPoint&quot; /&gt;&#10;          &lt;/mxGeometry&gt;&#10;        &lt;/mxCell&gt;&#10;        &lt;mxCell id=&quot;t34&quot; parent=&quot;1&quot; style=&quot;text;html=0;strokeColor=none;fillColor=none;align=left;verticalAlign=middle;fontSize=10;fontStyle=0;fontColor=#232F3E;fontFamily=Helvetica;&quot; value=&quot;Implemented&quot; vertex=&quot;1&quot;&gt;&#10;          &lt;mxGeometry height=&quot;20&quot; width=&quot;80&quot; x=&quot;78&quot; y=&quot;675&quot; as=&quot;geometry&quot; /&gt;&#10;        &lt;/mxCell&gt;&#10;        &lt;mxCell id=&quot;l35&quot; edge=&quot;1&quot; parent=&quot;1&quot; style=&quot;endArrow=block;endFill=1;strokeColor=#ED7100;strokeWidth=1.5;dashed=1;dashPattern=6 4;html=0;&quot; value=&quot;&quot;&gt;&#10;          &lt;mxGeometry relative=&quot;1&quot; as=&quot;geometry&quot;&gt;&#10;            &lt;mxPoint x=&quot;168&quot; y=&quot;685&quot; as=&quot;sourcePoint&quot; /&gt;&#10;            &lt;mxPoint x=&quot;208&quot; y=&quot;685&quot; as=&quot;targetPoint&quot; /&gt;&#10;          &lt;/mxGeometry&gt;&#10;        &lt;/mxCell&gt;&#10;        &lt;mxCell id=&quot;t36&quot; parent=&quot;1&quot; style=&quot;text;html=0;strokeColor=none;fillColor=none;align=left;verticalAlign=middle;fontSize=10;fontStyle=0;fontColor=#ED7100;fontFamily=Helvetica;&quot; value=&quot;Planned (not yet built)&quot; vertex=&quot;1&quot;&gt;&#10;          &lt;mxGeometry height=&quot;20&quot; width=&quot;140&quot; x=&quot;214&quot; y=&quot;675&quot; as=&quot;geometry&quot; /&gt;&#10;        &lt;/mxCell&gt;&#10;      &lt;/root&gt;&#10;    &lt;/mxGraphModel&gt;&#10;  &lt;/diagram&gt;&#10;&lt;/mxfile&gt;&#10;"><defs/><rect fill="#FFFFFF" width="100%" height="100%" x="0" y="0" style="fill: light-dark(rgb(255, 255, 255), rgb(18, 18, 18));"/><g><g data-cell-id="0"><g data-cell-id="1"><g data-cell-id="t1"><g><rect x="0" y="0" width="800" height="30" fill="none" stroke="none" pointer-events="all"/></g><g><g fill="#232F3E" font-family="Helvetica" font-weight="bold" text-anchor="start" font-size="20px" style="fill: light-dark(rgb(35, 47, 62), rgb(189, 199, 212));"><text x="2" y="24">Flamestar Capital Website — Architecture</text></g></g></g><g data-cell-id="t2"><g><rect x="0" y="28" width="800" height="20" fill="none" stroke="none" pointer-events="all"/></g><g><g fill="#545B64" font-family="Helvetica" text-anchor="start" font-size="12px" style="fill: light-dark(rgb(84, 91, 100), rgb(154, 160, 168));"><text x="2" y="43">Static React SPA built from Figma · no backend · Bun + Vite</text></g></g></g><g data-cell-id="g3"><g transform="translate(0.5,0.5)"><rect x="0" y="70" width="660" height="560" rx="11.2" ry="11.2" fill="none" stroke="#879196" stroke-dasharray="3 3" pointer-events="all" style="stroke: light-dark(rgb(135, 145, 150), rgb(106, 115, 119));"/></g><g><g fill="#232F3E" font-family="Helvetica" font-weight="bold" text-anchor="start" font-size="12px" style="fill: light-dark(rgb(35, 47, 62), rgb(189, 199, 212));"><text x="12" y="88">Build time — asset pipeline &amp; bundling (Bun scripts)</text></g></g><g data-cell-id="b4"><g transform="translate(0.5,0.5)"><rect x="30" y="120" width="190" height="50" rx="4" ry="4" fill="#f3e8ff" stroke="#a259ff" pointer-events="all" style="fill: light-dark(rgb(243, 232, 255), rgb(41, 31, 51)); stroke: light-dark(rgb(162, 89, 255), rgb(177, 114, 255));"/></g><g><g fill="#232F3E" font-family="Helvetica" text-anchor="middle" font-size="11px" style="fill: light-dark(rgb(35, 47, 62), rgb(189, 199, 212));"><text x="125" y="143">Figma design</text><text x="125" y="156">(via Figma MCP in Copilot Chat)</text></g></g></g><g data-cell-id="b5"><g transform="translate(0.5,0.5)"><rect x="30" y="220" width="190" height="50" rx="4" ry="4" fill="#f8f9f9" stroke="#879196" pointer-events="all" style="fill: light-dark(rgb(248, 249, 249), rgb(22, 23, 23)); stroke: light-dark(rgb(135, 145, 150), rgb(106, 115, 119));"/></g><g><g fill="#232F3E" font-family="Helvetica" text-anchor="middle" font-size="11px" style="fill: light-dark(rgb(35, 47, 62), rgb(189, 199, 212));"><text x="125" y="243">Font sources</text><text x="125" y="256">unpkg (Geist) · rsms.me (Inter)</text></g></g></g><g data-cell-id="b6"><g transform="translate(0.5,0.5)"><rect x="300" y="150" width="220" height="64" rx="5.12" ry="5.12" fill="#ffffff" stroke="#879196" pointer-events="all" style="fill: light-dark(rgb(255, 255, 255), rgb(18, 18, 18)); stroke: light-dark(rgb(135, 145, 150), rgb(106, 115, 119));"/></g><g><g fill="#232F3E" font-family="Helvetica" text-anchor="middle" font-size="11px" style="fill: light-dark(rgb(35, 47, 62), rgb(189, 199, 212));"><text x="410" y="173.5">download-assets.mjs</text><text x="410" y="186.5">fetch Figma MCP asset URLs</text><text x="410" y="199.5">cwebp / rsvg-convert → WebP</text></g></g></g><g data-cell-id="b7"><g transform="translate(0.5,0.5)"><rect x="470" y="352" width="170" height="44" rx="3.52" ry="3.52" fill="#f8f9f9" stroke="#879196" pointer-events="all" style="fill: light-dark(rgb(248, 249, 249), rgb(22, 23, 23)); stroke: light-dark(rgb(135, 145, 150), rgb(106, 115, 119));"/></g><g><g fill="#232F3E" font-family="Helvetica" text-anchor="middle" font-size="11px" style="fill: light-dark(rgb(35, 47, 62), rgb(189, 199, 212));"><text x="555" y="372">audit-assets.mjs</text><text x="555" y="385">live vs. on-disk report</text></g></g></g><g data-cell-id="n8"><g><path d="M 388.18 393.64 L 388.18 365.27 L 431.82 365.27 L 431.82 393.64 Z M 401.91 354.36 L 405.96 358.41 C 406.16 358.61 406.44 358.73 406.73 358.73 L 431.82 358.73 L 431.82 363.09 L 388.18 363.09 L 388.18 354.36 Z M 434 357.64 C 434 357.35 433.89 357.07 433.68 356.87 C 433.48 356.66 433.2 356.55 432.91 356.55 L 407.18 356.55 L 403.13 352.5 C 402.93 352.3 402.65 352.18 402.36 352.18 L 387.09 352.18 C 386.49 352.18 386 352.67 386 353.27 L 386 364.18 L 386 394.73 C 386 395.33 386.49 395.82 387.09 395.82 L 432.91 395.82 C 433.2 395.82 433.48 395.7 433.68 395.5 C 433.89 395.29 434 395.02 434 394.73 L 434 364.18 L 434 364.17 Z" fill="#7d8998" stroke="none" pointer-events="all" style="fill: light-dark(rgb(125, 137, 152), rgb(111, 122, 135));"/></g><g><g fill="#232F3E" font-family="Helvetica" text-anchor="end" font-size="11px" style="fill: light-dark(rgb(35, 47, 62), rgb(189, 199, 212));"><text x="382" y="359">public/assets</text><text x="382" y="372">icons · WebP images ·</text><text x="382" y="385">variable fonts ·</text><text x="382" y="398">asset-manifest.json</text></g></g></g><g data-cell-id="b9"><g transform="translate(0.5,0.5)"><rect x="30" y="483" width="210" height="50" rx="4" ry="4" fill="#ffffff" stroke="#879196" pointer-events="all" style="fill: light-dark(rgb(255, 255, 255), rgb(18, 18, 18)); stroke: light-dark(rgb(135, 145, 150), rgb(106, 115, 119));"/></g><g><g fill="#232F3E" font-family="Helvetica" text-anchor="middle" font-size="11px" style="fill: light-dark(rgb(35, 47, 62), rgb(189, 199, 212));"><text x="135" y="506">src/ — React 19 · TypeScript</text><text x="135" y="519">SCSS Modules + design tokens</text></g></g></g><g data-cell-id="b10"><g transform="translate(0.5,0.5)"><rect x="335" y="490" width="150" height="36" rx="2.88" ry="2.88" fill="#fff4e5" stroke="#ed7100" pointer-events="all" style="fill: light-dark(rgb(255, 244, 229), rgb(34, 25, 12)); stroke: light-dark(rgb(237, 113, 0), rgb(216, 109, 12));"/></g><g><g fill="#232F3E" font-family="Helvetica" font-weight="bold" text-anchor="middle" font-size="11px" style="fill: light-dark(rgb(35, 47, 62), rgb(189, 199, 212));"><text x="410" y="512.5">vite build</text></g></g></g><g data-cell-id="n11"><g><path d="M 562.18 527.64 L 562.18 499.27 L 605.82 499.27 L 605.82 527.64 Z M 575.91 488.36 L 579.96 492.41 C 580.16 492.61 580.44 492.73 580.73 492.73 L 605.82 492.73 L 605.82 497.09 L 562.18 497.09 L 562.18 488.36 Z M 608 491.64 C 608 491.35 607.89 491.07 607.68 490.87 C 607.48 490.66 607.2 490.55 606.91 490.55 L 581.18 490.55 L 577.13 486.5 C 576.93 486.3 576.65 486.18 576.36 486.18 L 561.09 486.18 C 560.8 486.18 560.52 486.3 560.32 486.5 C 560.11 486.71 560 486.98 560 487.27 L 560 498.18 L 560 528.73 C 560 529.02 560.11 529.29 560.32 529.5 C 560.52 529.7 560.8 529.82 561.09 529.82 L 606.91 529.82 C 607.2 529.82 607.48 529.7 607.68 529.5 C 607.89 529.29 608 529.02 608 528.73 L 608 498.18 L 608 498.17 Z" fill="#7d8998" stroke="none" pointer-events="all" style="fill: light-dark(rgb(125, 137, 152), rgb(111, 122, 135));"/></g><g><g fill="#232F3E" font-family="Helvetica" text-anchor="middle" font-size="11px" style="fill: light-dark(rgb(35, 47, 62), rgb(189, 199, 212));"><text x="584" y="549">dist/</text><text x="584" y="562">static bundle</text></g></g></g></g><g data-cell-id="e12"><g><path d="M 220 145 L 250 145 Q 260 145 260 155 L 260 162.1 Q 260 169.2 270 169.2 L 290.82 169.2" fill="none" stroke="#545b64" stroke-width="1.5" stroke-miterlimit="10" pointer-events="stroke" style="stroke: light-dark(rgb(84, 91, 100), rgb(154, 160, 168));"/><path d="M 298.32 169.2 L 290.82 172.95 L 290.82 165.45 Z" fill="#545b64" stroke="#545b64" stroke-width="1.5" stroke-miterlimit="10" pointer-events="all" style="fill: light-dark(rgb(84, 91, 100), rgb(154, 160, 168)); stroke: light-dark(rgb(84, 91, 100), rgb(154, 160, 168));"/></g></g><g data-cell-id="e13"><g><path d="M 220 245 L 250 245 Q 260 245 260 235 L 260 208 Q 260 198 270 198 L 290.82 198" fill="none" stroke="#545b64" stroke-width="1.5" stroke-miterlimit="10" pointer-events="stroke" style="stroke: light-dark(rgb(84, 91, 100), rgb(154, 160, 168));"/><path d="M 298.32 198 L 290.82 201.75 L 290.82 194.25 Z" fill="#545b64" stroke="#545b64" stroke-width="1.5" stroke-miterlimit="10" pointer-events="all" style="fill: light-dark(rgb(84, 91, 100), rgb(154, 160, 168)); stroke: light-dark(rgb(84, 91, 100), rgb(154, 160, 168));"/></g></g><g data-cell-id="e14"><g><path d="M 410 214 L 410 343" fill="none" stroke="#545b64" stroke-width="1.5" stroke-miterlimit="10" pointer-events="stroke" style="stroke: light-dark(rgb(84, 91, 100), rgb(154, 160, 168));"/><path d="M 410 350.5 L 406.25 343 L 413.75 343 Z" fill="#545b64" stroke="#545b64" stroke-width="1.5" stroke-miterlimit="10" pointer-events="all" style="fill: light-dark(rgb(84, 91, 100), rgb(154, 160, 168)); stroke: light-dark(rgb(84, 91, 100), rgb(154, 160, 168));"/></g></g><g data-cell-id="e15"><g><path d="M 470 374 L 443.18 374" fill="none" stroke="#545b64" stroke-width="1.5" stroke-miterlimit="10" stroke-dasharray="9 6" pointer-events="stroke" style="stroke: light-dark(rgb(84, 91, 100), rgb(154, 160, 168));"/><path d="M 435.68 374 L 443.18 370.25 L 443.18 377.75 Z" fill="#545b64" stroke="#545b64" stroke-width="1.5" stroke-miterlimit="10" pointer-events="all" style="fill: light-dark(rgb(84, 91, 100), rgb(154, 160, 168)); stroke: light-dark(rgb(84, 91, 100), rgb(154, 160, 168));"/></g><g><g fill="#545B64" font-family="Helvetica" text-anchor="middle" font-size="10px" style="fill: light-dark(rgb(84, 91, 100), rgb(154, 160, 168));"><rect fill="#FFFFFF" stroke="none" x="436" y="369" width="33" height="13" stroke-width="0" style="fill: light-dark(rgb(255, 255, 255), rgb(18, 18, 18));"/><text x="452" y="378">checks</text></g></g></g><g data-cell-id="e16"><g><path d="M 240 508 L 325.82 508" fill="none" stroke="#545b64" stroke-width="1.5" stroke-miterlimit="10" pointer-events="stroke" style="stroke: light-dark(rgb(84, 91, 100), rgb(154, 160, 168));"/><path d="M 333.32 508 L 325.82 511.75 L 325.82 504.25 Z" fill="#545b64" stroke="#545b64" stroke-width="1.5" stroke-miterlimit="10" pointer-events="all" style="fill: light-dark(rgb(84, 91, 100), rgb(154, 160, 168)); stroke: light-dark(rgb(84, 91, 100), rgb(154, 160, 168));"/></g></g><g data-cell-id="e17"><g><path d="M 410 395.82 L 410 480.82" fill="none" stroke="#545b64" stroke-width="1.5" stroke-miterlimit="10" pointer-events="stroke" style="stroke: light-dark(rgb(84, 91, 100), rgb(154, 160, 168));"/><path d="M 410 488.32 L 406.25 480.82 L 413.75 480.82 Z" fill="#545b64" stroke="#545b64" stroke-width="1.5" stroke-miterlimit="10" pointer-events="all" style="fill: light-dark(rgb(84, 91, 100), rgb(154, 160, 168)); stroke: light-dark(rgb(84, 91, 100), rgb(154, 160, 168));"/></g></g><g data-cell-id="e18"><g><path d="M 485 508 L 550.82 508" fill="none" stroke="#545b64" stroke-width="1.5" stroke-miterlimit="10" pointer-events="stroke" style="stroke: light-dark(rgb(84, 91, 100), rgb(154, 160, 168));"/><path d="M 558.32 508 L 550.82 511.75 L 550.82 504.25 Z" fill="#545b64" stroke="#545b64" stroke-width="1.5" stroke-miterlimit="10" pointer-events="all" style="fill: light-dark(rgb(84, 91, 100), rgb(154, 160, 168)); stroke: light-dark(rgb(84, 91, 100), rgb(154, 160, 168));"/></g></g><g data-cell-id="n19"><g><path d="M 799.43 358.66 C 797.88 359.42 796.06 360.05 794.03 360.51 C 793.11 357.49 791.87 355 790.39 353.19 C 793.85 354.26 796.94 356.16 799.43 358.66 Z M 795.76 372.33 C 795.69 368.81 795.28 365.55 794.6 362.66 C 797.01 362.1 799.17 361.33 800.96 360.39 C 803.63 363.71 805.34 367.83 805.68 372.33 Z M 794.28 385.59 C 795.15 382.34 795.67 378.6 795.76 374.56 L 805.74 374.56 C 805.61 379.59 803.79 384.21 800.79 387.84 C 798.96 386.89 796.73 386.14 794.28 385.59 Z M 793.63 387.73 C 795.72 388.18 797.6 388.79 799.2 389.55 C 796.51 392.18 793.19 394.06 789.56 395.02 C 791.19 393.33 792.58 390.83 793.63 387.73 Z M 775.67 387.9 C 776.79 391.14 778.29 393.73 780.04 395.39 C 776.06 394.65 772.47 392.83 769.56 390.25 C 771.2 389.27 773.29 388.47 775.67 387.9 Z M 773.48 374.56 C 773.57 378.67 774.11 382.48 775.01 385.77 C 772.23 386.46 769.81 387.43 767.93 388.63 C 764.52 384.89 762.4 379.97 762.26 374.56 Z M 774.68 362.46 C 773.97 365.4 773.56 368.73 773.48 372.33 L 762.32 372.33 C 762.69 367.45 764.68 363.02 767.75 359.57 C 769.58 360.77 771.95 361.76 774.68 362.46 Z M 775.26 360.32 C 772.95 359.73 770.92 358.93 769.35 357.95 C 772.08 355.45 775.44 353.64 779.18 352.79 C 777.58 354.58 776.24 357.16 775.26 360.32 Z M 775.71 372.33 C 775.79 368.8 776.19 365.65 776.84 362.95 C 779.4 363.45 782.18 363.71 785.05 363.71 C 787.61 363.71 790.1 363.5 792.43 363.1 C 793.06 365.76 793.45 368.86 793.53 372.33 Z M 791.44 387.32 C 789.69 392.29 787.11 395.21 784.62 395.21 C 782.15 395.21 779.59 392.34 777.84 387.45 C 780.09 387.05 782.53 386.84 785.05 386.84 C 787.19 386.84 789.33 387 791.44 387.32 Z M 785.05 384.6 C 782.3 384.6 779.64 384.85 777.18 385.31 C 776.34 382.27 775.71 378.64 775.63 374.56 L 793.49 374.56 C 793.4 378.58 792.92 382.16 792.1 385.17 C 789.87 384.81 787.49 384.6 785.05 384.6 Z M 785.1 352.29 C 787.63 352.64 790.21 355.72 791.85 360.94 C 789.71 361.29 787.41 361.48 785.05 361.48 C 782.38 361.48 779.8 361.24 777.44 360.81 C 779.14 355.47 781.83 352.4 784.43 352.25 C 784.66 352.26 784.88 352.28 785.1 352.29 Z M 785.27 350.06 C 785.05 350.04 784.84 350 784.62 350 C 784.55 350 784.48 350.02 784.41 350.02 C 784.27 350.02 784.14 350 784 350 C 770.77 350 760 360.77 760 374 C 760 387.23 770.77 398 784 398 C 797.23 398 808 387.23 808 374 C 808 361.19 797.91 350.73 785.27 350.06 Z" fill-opacity="0.55" fill="#232f3e" stroke="none" pointer-events="all" style="fill: light-dark(rgb(35, 47, 62), rgb(189, 199, 212));"/></g><g><g fill="#232F3E" font-family="Helvetica" text-anchor="middle" opacity="0.8" font-size="11px" style="fill: light-dark(rgb(35, 47, 62), rgb(189, 199, 212));"><text x="784" y="332">Static host</text><text x="784" y="345">(not yet chosen)</text></g></g></g><g data-cell-id="t20"><g><rect x="720" y="406" width="130" height="32" fill="none" stroke="none" pointer-events="all"/></g><g><g fill="#ED7100" font-family="Helvetica" text-anchor="middle" font-size="10px" style="fill: light-dark(rgb(237, 113, 0), rgb(216, 109, 12));"><text x="785" y="420">serves HTML · JS · CSS</text><text x="785" y="432">+ self-hosted fonts</text></g></g></g><g data-cell-id="e21"><g><path d="M 608 508 L 690 508 Q 700 508 700 498 L 700 384 Q 700 374 710 374 L 750.82 374" fill="none" stroke="#ed7100" stroke-width="1.5" stroke-miterlimit="10" stroke-dasharray="9 6" pointer-events="stroke" style="stroke: light-dark(rgb(237, 113, 0), rgb(216, 109, 12));"/><path d="M 758.32 374 L 750.82 377.75 L 750.82 370.25 Z" fill="#ed7100" stroke="#ed7100" stroke-width="1.5" stroke-miterlimit="10" pointer-events="all" style="fill: light-dark(rgb(237, 113, 0), rgb(216, 109, 12)); stroke: light-dark(rgb(237, 113, 0), rgb(216, 109, 12));"/></g><g><g fill="#545B64" font-family="Helvetica" text-anchor="middle" font-size="10px" style="fill: light-dark(rgb(84, 91, 100), rgb(154, 160, 168));"><rect fill="#FFFFFF" stroke="none" x="685" y="452" width="31" height="13" stroke-width="0" style="fill: light-dark(rgb(255, 255, 255), rgb(18, 18, 18));"/><text x="700" y="461">deploy</text></g></g></g><g data-cell-id="g22"><g transform="translate(0.5,0.5)"><rect x="880" y="70" width="480" height="560" rx="9.6" ry="9.6" fill="none" stroke="#879196" stroke-dasharray="3 3" pointer-events="all" style="stroke: light-dark(rgb(135, 145, 150), rgb(106, 115, 119));"/></g><g><g fill="#232F3E" font-family="Helvetica" font-weight="bold" text-anchor="start" font-size="12px" style="fill: light-dark(rgb(35, 47, 62), rgb(189, 199, 212));"><text x="892" y="88">Runtime — visitor's browser</text></g></g><g data-cell-id="n23"><g><path d="M 1125.06 137.95 C 1125.06 134.77 1127.69 132.18 1130.93 132.18 C 1134.17 132.18 1136.8 134.77 1136.8 137.95 C 1136.8 141.13 1134.17 143.71 1130.93 143.71 C 1127.69 143.71 1125.06 141.13 1125.06 137.95 Z M 1137.63 145.64 C 1136.93 145.2 1136.18 144.84 1135.41 144.55 C 1137.56 143.12 1138.98 140.69 1138.98 137.95 C 1138.98 133.57 1135.37 130 1130.93 130 C 1126.49 130 1122.88 133.57 1122.88 137.95 C 1122.88 140.69 1124.29 143.11 1126.43 144.54 C 1125.03 145.06 1123.72 145.83 1122.56 146.83 L 1123.98 148.48 C 1125.93 146.82 1128.39 145.9 1130.91 145.9 C 1132.87 145.9 1134.8 146.45 1136.48 147.49 C 1139.47 149.35 1141.43 152.61 1141.77 156.18 L 1130.91 156.18 L 1130.91 158.36 L 1142.91 158.36 C 1143.51 158.36 1144 157.88 1144 157.27 C 1144 152.53 1141.56 148.08 1137.63 145.64 Z M 1103.24 137.95 C 1103.24 134.77 1105.87 132.18 1109.11 132.18 C 1112.35 132.18 1114.98 134.77 1114.98 137.95 C 1114.98 141.13 1112.35 143.71 1109.11 143.71 C 1105.87 143.71 1103.24 141.13 1103.24 137.95 Z M 1109.09 156.18 L 1098.23 156.18 C 1098.76 150.42 1103.43 145.9 1109.09 145.9 C 1111.06 145.9 1112.98 146.45 1114.66 147.49 C 1115.14 147.78 1115.59 148.12 1116.02 148.48 L 1117.44 146.83 C 1116.93 146.39 1116.38 145.99 1115.81 145.64 C 1115.11 145.2 1114.36 144.84 1113.59 144.55 C 1115.74 143.12 1117.16 140.69 1117.16 137.95 C 1117.16 133.57 1113.55 130 1109.11 130 C 1104.67 130 1101.06 133.57 1101.06 137.95 C 1101.06 140.69 1102.48 143.12 1104.63 144.54 C 1099.6 146.44 1096 151.42 1096 157.27 C 1096 157.88 1096.49 158.36 1097.09 158.36 L 1109.09 158.36 Z M 1109.14 175.82 C 1109.67 170.05 1114.34 165.53 1120 165.53 C 1121.97 165.53 1123.89 166.08 1125.57 167.13 C 1128.56 168.98 1130.52 172.25 1130.86 175.82 Z M 1114.15 157.58 C 1114.15 154.4 1116.78 151.82 1120.02 151.82 C 1123.26 151.82 1125.89 154.4 1125.89 157.58 C 1125.89 160.76 1123.26 163.35 1120.02 163.35 C 1116.78 163.35 1114.15 160.76 1114.15 157.58 Z M 1126.72 165.27 C 1126.02 164.83 1125.27 164.47 1124.5 164.18 C 1126.65 162.75 1128.07 160.33 1128.07 157.58 C 1128.07 153.2 1124.46 149.64 1120.02 149.64 C 1115.58 149.64 1111.97 153.2 1111.97 157.58 C 1111.97 160.33 1113.39 162.75 1115.53 164.18 C 1110.51 166.08 1106.91 171.06 1106.91 176.91 C 1106.91 177.51 1107.4 178 1108 178 L 1132 178 C 1132.6 178 1133.09 177.51 1133.09 176.91 C 1133.09 172.17 1130.65 167.71 1126.72 165.27 Z" fill="#232f3e" stroke="none" pointer-events="all" style="fill: light-dark(rgb(35, 47, 62), rgb(189, 199, 212));"/></g><g><g fill="#232F3E" font-family="Helvetica" text-anchor="start" font-size="11px" style="fill: light-dark(rgb(35, 47, 62), rgb(189, 199, 212));"><text x="1148" y="158.5">Prospective investors</text></g></g></g><g data-cell-id="b24"><g transform="translate(0.5,0.5)"><rect x="930" y="230" width="380" height="50" rx="4" ry="4" fill="#e6f6f7" stroke="#00a4a6" pointer-events="all" style="fill: light-dark(rgb(230, 246, 247), rgb(18, 31, 32)); stroke: light-dark(rgb(0, 164, 166), rgb(15, 156, 158));"/></g><g><g fill="#232F3E" font-family="Helvetica" font-weight="bold" text-anchor="middle" font-size="11px" style="fill: light-dark(rgb(35, 47, 62), rgb(189, 199, 212));"><text x="1120" y="253">React SPA — React Router 7</text><text x="1120" y="266">lazy-loaded routes (React.lazy + Suspense)</text></g></g></g><g data-cell-id="b25"><g transform="translate(0.5,0.5)"><rect x="930" y="300" width="380" height="44" rx="3.52" ry="3.52" fill="#ffffff" stroke="#879196" pointer-events="all" style="fill: light-dark(rgb(255, 255, 255), rgb(18, 18, 18)); stroke: light-dark(rgb(135, 145, 150), rgb(106, 115, 119));"/></g><g><g fill="#232F3E" font-family="Helvetica" text-anchor="middle" font-size="10px" style="fill: light-dark(rgb(35, 47, 62), rgb(189, 199, 212));"><text x="1120" y="320">Landing · About · Services · Our Funds ·</text><text x="1120" y="332">Track Record · Insights · Contact · Privacy</text></g></g></g><g data-cell-id="b26"><g transform="translate(0.5,0.5)"><rect x="930" y="360" width="380" height="44" rx="3.52" ry="3.52" fill="#ffffff" stroke="#879196" pointer-events="all" style="fill: light-dark(rgb(255, 255, 255), rgb(18, 18, 18)); stroke: light-dark(rgb(135, 145, 150), rgb(106, 115, 119));"/></g><g><g fill="#232F3E" font-family="Helvetica" text-anchor="middle" font-size="10px" style="fill: light-dark(rgb(35, 47, 62), rgb(189, 199, 212));"><text x="1120" y="380">Shared layout: SiteHeader · SiteFooter · PageShell · MobileMenu</text><text x="1120" y="392">UI primitives: Button · Card · Input · AnimatedChartCard</text></g></g></g><g data-cell-id="b27"><g transform="translate(0.5,0.5)"><rect x="930" y="420" width="380" height="44" rx="3.52" ry="3.52" fill="#f8f9f9" stroke="#879196" pointer-events="all" style="fill: light-dark(rgb(248, 249, 249), rgb(22, 23, 23)); stroke: light-dark(rgb(135, 145, 150), rgb(106, 115, 119));"/></g><g><g fill="#232F3E" font-family="Helvetica" text-anchor="middle" font-size="10px" style="fill: light-dark(rgb(35, 47, 62), rgb(189, 199, 212));"><text x="1120" y="440">Accessibility: skip-link · ARIA live regions ·</text><text x="1120" y="452">focus-visible rings · prefers-reduced-motion</text></g></g></g><g data-cell-id="b28"><g transform="translate(0.5,0.5)"><rect x="930" y="490" width="380" height="44" rx="3.52" ry="3.52" fill="#ffffff" stroke="#ed7100" stroke-dasharray="8 4" pointer-events="all" style="fill: light-dark(rgb(255, 255, 255), rgb(18, 18, 18)); stroke: light-dark(rgb(237, 113, 0), rgb(216, 109, 12));"/></g><g><g fill="#ED7100" font-family="Helvetica" text-anchor="middle" font-size="10px" style="fill: light-dark(rgb(237, 113, 0), rgb(216, 109, 12));"><text x="1120" y="510">Contact form — client-side validation only</text><text x="1120" y="522">(no submission endpoint yet)</text></g></g></g><g data-cell-id="b29"><g transform="translate(0.5,0.5)"><rect x="930" y="560" width="380" height="34" rx="2.72" ry="2.72" fill="#f8f9f9" stroke="#879196" pointer-events="all" style="fill: light-dark(rgb(248, 249, 249), rgb(22, 23, 23)); stroke: light-dark(rgb(135, 145, 150), rgb(106, 115, 119));"/></g><g><g fill="#232F3E" font-family="Helvetica" text-anchor="middle" font-size="10px" style="fill: light-dark(rgb(35, 47, 62), rgb(189, 199, 212));"><text x="1120" y="581">Google Maps embed · mailto: · WhatsApp (wa.me)</text></g></g></g></g><g data-cell-id="e30"><g><path d="M 1120 178 L 1120 220.82" fill="none" stroke="#545b64" stroke-width="1.5" stroke-miterlimit="10" pointer-events="stroke" style="stroke: light-dark(rgb(84, 91, 100), rgb(154, 160, 168));"/><path d="M 1120 228.32 L 1116.25 220.82 L 1123.75 220.82 Z" fill="#545b64" stroke="#545b64" stroke-width="1.5" stroke-miterlimit="10" pointer-events="all" style="fill: light-dark(rgb(84, 91, 100), rgb(154, 160, 168)); stroke: light-dark(rgb(84, 91, 100), rgb(154, 160, 168));"/></g></g><g data-cell-id="e31"><g><path d="M 808 374 L 850 374 Q 860 374 860 364 L 860 265 Q 860 255 870 255 L 920.82 255" fill="none" stroke="#ed7100" stroke-width="1.5" stroke-miterlimit="10" stroke-dasharray="9 6" pointer-events="stroke" style="stroke: light-dark(rgb(237, 113, 0), rgb(216, 109, 12));"/><path d="M 928.32 255 L 920.82 258.75 L 920.82 251.25 Z" fill="#ed7100" stroke="#ed7100" stroke-width="1.5" stroke-miterlimit="10" pointer-events="all" style="fill: light-dark(rgb(237, 113, 0), rgb(216, 109, 12)); stroke: light-dark(rgb(237, 113, 0), rgb(216, 109, 12));"/></g></g><g data-cell-id="b32"><g transform="translate(0.5,0.5)"><rect x="0" y="660" width="330" height="30" rx="2.4" ry="2.4" fill="#ffffff" stroke="#d5dbdb" pointer-events="all" style="fill: light-dark(rgb(255, 255, 255), rgb(18, 18, 18)); stroke: light-dark(rgb(213, 219, 219), rgb(46, 51, 51));"/></g></g><g data-cell-id="l33"><g><path d="M 12 675 L 42.82 675" fill="none" stroke="#545b64" stroke-width="1.5" stroke-miterlimit="10" pointer-events="stroke" style="stroke: light-dark(rgb(84, 91, 100), rgb(154, 160, 168));"/><path d="M 50.32 675 L 42.82 678.75 L 42.82 671.25 Z" fill="#545b64" stroke="#545b64" stroke-width="1.5" stroke-miterlimit="10" pointer-events="all" style="fill: light-dark(rgb(84, 91, 100), rgb(154, 160, 168)); stroke: light-dark(rgb(84, 91, 100), rgb(154, 160, 168));"/></g></g><g data-cell-id="t34"><g><rect x="58" y="665" width="80" height="20" fill="none" stroke="none" pointer-events="all"/></g><g><g fill="#232F3E" font-family="Helvetica" text-anchor="start" font-size="10px" style="fill: light-dark(rgb(35, 47, 62), rgb(189, 199, 212));"><text x="60" y="679">Implemented</text></g></g></g><g data-cell-id="l35"><g><path d="M 148 675 L 178.82 675" fill="none" stroke="#ed7100" stroke-width="1.5" stroke-miterlimit="10" stroke-dasharray="9 6" pointer-events="stroke" style="stroke: light-dark(rgb(237, 113, 0), rgb(216, 109, 12));"/><path d="M 186.32 675 L 178.82 678.75 L 178.82 671.25 Z" fill="#ed7100" stroke="#ed7100" stroke-width="1.5" stroke-miterlimit="10" pointer-events="all" style="fill: light-dark(rgb(237, 113, 0), rgb(216, 109, 12)); stroke: light-dark(rgb(237, 113, 0), rgb(216, 109, 12));"/></g></g><g data-cell-id="t36"><g><rect x="194" y="665" width="140" height="20" fill="none" stroke="none" pointer-events="all"/></g><g><g fill="#ED7100" font-family="Helvetica" text-anchor="start" font-size="10px" style="fill: light-dark(rgb(237, 113, 0), rgb(216, 109, 12));"><text x="196" y="679">Planned (not yet built)</text></g></g></g></g></g></g></svg>